# xmcd
#
# Track frame offsets: 
#        150
#        11104
#        28584
#        57816
#        66311
#        85053
#        102397
#        121972
#        131304
#        165612
#        197839
#        220286
#
# Disc length: 3192 seconds
#
# Revision: 0
# Processed by: cddbd v1.5.2PL0 Copyright (c) Steve Scherf et al.
# Submitted via: ExactAudioCopy v0.99pb5
#
DISCID=a40c760c
DTITLE=The Love Supreme  - New Millennium Freaks 
DYEAR=2009
DGENRE=Electronic
TTITLE0=Elsewhere Once More
TTITLE1=Gold Dust
TTITLE2=Sugar
TTITLE3=The Parrot
TTITLE4=Boy
TTITLE5=Waiting For The Love
TTITLE6=Rocquet (Album Version)
TTITLE7=Sonic Apes
TTITLE8=Tiefferre
TTITLE9=Bela Lugosi's Dead
TTITLE10=Memory Of A Freak Festival
TTITLE11=Alles Liebe
EXTD=
EXTT0=
EXTT1=
EXTT2=
EXTT3=
EXTT4=
EXTT5=
EXTT6=
EXTT7=
EXTT8=
EXTT9=
EXTT10=
EXTT11=
PLAYORDER=
